<svg xmlns="http://www.w3.org/2000/svg" xmlns:xlink="http://www.w3.org/1999/xlink" width="1080" zoomAndPan="magnify" viewBox="0 0 810 809.999993" height="1080" preserveAspectRatio="xMidYMid meet" version="1.0"><rect x="-81" width="972" fill="#ffffff" y="-80.999999" height="971.999992" fill-opacity="1"/><rect x="-81" width="972" fill="#ffffff" y="-80.999999" height="971.999992" fill-opacity="1"/><path fill="#b0bfe2" d="M 808.300781 405.035156 C 808.535156 411.121094 808.628906 417.207031 808.578125 423.296875 C 808.523438 429.382812 808.332031 435.46875 807.992188 441.546875 C 807.65625 447.628906 807.175781 453.695312 806.550781 459.753906 C 805.925781 465.8125 805.160156 471.851562 804.253906 477.871094 C 803.347656 483.890625 802.296875 489.886719 801.105469 495.859375 C 799.917969 501.832031 798.585938 507.773438 797.117188 513.679688 C 795.648438 519.589844 794.039062 525.460938 792.292969 531.296875 C 790.546875 537.128906 788.664062 542.917969 786.644531 548.664062 C 784.625 554.40625 782.472656 560.101562 780.183594 565.746094 C 777.898438 571.390625 775.480469 576.976562 772.929688 582.507812 C 770.378906 588.035156 767.699219 593.503906 764.890625 598.90625 C 762.085938 604.3125 759.152344 609.644531 756.09375 614.910156 C 753.035156 620.175781 749.851562 625.367188 746.550781 630.484375 C 743.246094 635.601562 739.824219 640.636719 736.285156 645.589844 C 732.746094 650.546875 729.089844 655.417969 725.320312 660.199219 C 721.550781 664.984375 717.671875 669.675781 713.679688 674.277344 C 709.6875 678.875 705.59375 683.378906 701.390625 687.789062 C 697.1875 692.195312 692.882812 696.503906 688.476562 700.707031 C 684.074219 704.914062 679.570312 709.015625 674.972656 713.007812 C 670.375 717 665.683594 720.886719 660.902344 724.65625 C 656.121094 728.429688 651.253906 732.089844 646.300781 735.632812 C 641.347656 739.179688 636.3125 742.605469 631.199219 745.910156 C 626.082031 749.21875 620.894531 752.402344 615.628906 755.46875 C 610.363281 758.53125 605.027344 761.46875 599.625 764.28125 C 594.222656 767.09375 588.757812 769.777344 583.226562 772.332031 C 577.695312 774.886719 572.109375 777.308594 566.46875 779.601562 C 560.824219 781.894531 555.128906 784.050781 549.382812 786.078125 C 543.636719 788.101562 537.847656 789.988281 532.015625 791.742188 C 526.179688 793.492188 520.308594 795.105469 514.398438 796.582031 C 508.488281 798.058594 502.546875 799.394531 496.574219 800.589844 C 490.601562 801.785156 484.601562 802.839844 478.578125 803.753906 C 472.554688 804.667969 466.515625 805.441406 460.457031 806.070312 C 451.496094 807.070312 442.535156 807.796875 433.355469 808.070312 C 428.007812 808.339844 422.65625 808.429688 417.207031 808.429688 C 394.199219 808.417969 371.351562 806.511719 348.660156 802.714844 C 340.902344 801.351562 333.226562 799.808594 325.542969 798.003906 C 319.984375 796.707031 314.457031 795.300781 308.957031 793.78125 C 303.457031 792.257812 297.992188 790.628906 292.558594 788.886719 C 287.125 787.140625 281.730469 785.289062 276.371094 783.328125 C 271.015625 781.363281 265.699219 779.292969 260.425781 777.113281 C 255.152344 774.933594 249.925781 772.648438 244.746094 770.257812 C 239.566406 767.867188 234.4375 765.367188 229.359375 762.769531 C 224.28125 760.167969 219.257812 757.464844 214.289062 754.660156 C 209.320312 751.855469 204.414062 748.949219 199.5625 745.945312 C 194.714844 742.9375 189.925781 739.835938 185.203125 736.636719 C 180.480469 733.4375 175.824219 730.140625 171.234375 726.75 C 166.644531 723.363281 162.128906 719.878906 157.679688 716.304688 C 153.234375 712.734375 148.859375 709.070312 144.5625 705.316406 C 140.265625 701.566406 136.046875 697.730469 131.902344 693.804688 C 127.761719 689.882812 123.703125 685.875 119.722656 681.785156 C 115.746094 677.699219 111.851562 673.53125 108.042969 669.28125 C 104.234375 665.035156 100.515625 660.710938 96.882812 656.3125 C 93.25 651.914062 89.710938 647.445312 86.261719 642.902344 C 82.808594 638.359375 79.453125 633.746094 76.191406 629.066406 C 72.929688 624.386719 69.765625 619.644531 66.695312 614.835938 C 63.628906 610.027344 60.65625 605.15625 57.789062 600.226562 C 54.917969 595.296875 52.148438 590.3125 49.480469 585.269531 C 46.8125 580.230469 44.25 575.132812 41.792969 569.988281 C 39.332031 564.839844 36.976562 559.648438 34.730469 554.40625 C 32.484375 549.160156 30.34375 543.875 28.308594 538.546875 C 26.277344 533.21875 24.355469 527.847656 22.542969 522.441406 C 20.726562 517.03125 19.023438 511.589844 17.433594 506.113281 C 15.839844 500.636719 14.363281 495.128906 12.996094 489.589844 C 11.625 484.054688 10.371094 478.492188 9.230469 472.902344 C 8.089844 467.316406 7.066406 461.707031 6.152344 456.074219 C 5.242188 450.445312 4.445312 444.796875 3.761719 439.136719 C 3.082031 433.472656 2.515625 427.796875 2.0625 422.113281 C 1.613281 416.425781 1.277344 410.734375 1.058594 405.035156 C -5.890625 182.238281 169.148438 1.640625 392.027344 1.640625 C 614.90625 1.640625 801.34375 182.238281 808.300781 405.035156 Z M 808.300781 405.035156 " fill-opacity="1" fill-rule="nonzero"/><path fill="#3d3051" d="M 243.800781 664.941406 C 170.300781 590.289062 226.707031 511.246094 251.5 461.199219 C 276.292969 411.152344 229.039062 332.082031 278.96875 271.484375 C 328.898438 210.890625 452.222656 220.546875 498.765625 261.824219 C 545.304688 303.101562 526.910156 348.769531 538.878906 372.484375 C 550.84375 396.199219 589.382812 392.230469 575.402344 478.527344 C 561.421875 564.824219 642.792969 662.878906 570.8125 697.4375 C 498.832031 731.992188 328.382812 685.140625 328.382812 685.140625 Z M 243.800781 664.941406 " fill-opacity="1" fill-rule="nonzero"/><path fill="#ebefff" d="M 486.730469 597.707031 L 458.679688 708.410156 L 433.375 808.058594 C 428.023438 808.328125 422.671875 808.417969 417.222656 808.417969 C 394.214844 808.40625 371.367188 806.5 348.675781 802.703125 L 334.613281 686.71875 L 323.617188 596.511719 C 324.335938 596.332031 325.0625 596.242188 325.691406 596.058594 C 333.804688 594.242188 338.773438 593.425781 338.773438 593.425781 L 357.53125 595.148438 L 402.515625 599.328125 L 442.894531 595.605469 L 465.976562 593.425781 C 465.976562 593.425781 473.832031 594.878906 486.351562 597.601562 C 486.457031 597.613281 486.640625 597.707031 486.730469 597.707031 Z M 486.730469 597.707031 " fill-opacity="1" fill-rule="nonzero"/><path fill="#645189" d="M 348.675781 802.714844 C 340.917969 801.351562 333.242188 799.808594 325.558594 798.003906 C 309.164062 794.226562 293.054688 789.46875 277.238281 783.738281 C 261.421875 778.007812 246.007812 771.339844 230.996094 763.742188 C 215.988281 756.140625 201.492188 747.660156 187.511719 738.300781 C 173.535156 728.945312 160.171875 718.773438 147.425781 707.796875 C 156.628906 690.5625 167.101562 674.136719 178.84375 658.519531 C 187.484375 647.808594 201.820312 638.277344 218.453125 630.203125 C 245.019531 618.078125 272.511719 608.640625 300.925781 601.886719 C 309.660156 599.617188 317.421875 597.894531 323.636719 596.53125 L 334.636719 686.738281 Z M 348.675781 802.714844 " fill-opacity="1" fill-rule="nonzero"/><path fill="#453963" d="M 348.675781 802.714844 C 340.917969 801.351562 333.242188 799.808594 325.558594 798.003906 C 309.0625 751.902344 291.191406 700.445312 283.75 674.488281 C 281.914062 669.214844 280.714844 663.800781 280.164062 658.242188 C 281.296875 648.167969 293.628906 618.59375 300.917969 601.886719 C 309.652344 599.617188 317.414062 597.894531 323.628906 596.53125 L 334.628906 686.738281 Z M 348.675781 802.714844 " fill-opacity="1" fill-rule="nonzero"/><path fill="#645189" d="M 670.140625 717.136719 C 662.761719 723.332031 655.164062 729.246094 647.34375 734.875 C 639.523438 740.507812 631.507812 745.839844 623.292969 750.875 C 615.078125 755.910156 606.6875 760.632812 598.121094 765.042969 C 589.554688 769.453125 580.832031 773.542969 571.960938 777.304688 C 563.089844 781.066406 554.09375 784.496094 544.96875 787.589844 C 535.839844 790.679688 526.613281 793.433594 517.28125 795.839844 C 507.949219 798.246094 498.542969 800.304688 489.058594 802.011719 C 479.574219 803.71875 470.039062 805.070312 460.457031 806.070312 C 451.496094 807.070312 442.535156 807.796875 433.355469 808.070312 L 458.664062 708.421875 L 486.714844 597.71875 C 492.75 599.074219 499.882812 600.707031 507.660156 602.617188 C 535.75 609.683594 572.515625 621.039062 600.132812 636.195312 C 611.339844 641.921875 621.257812 649.363281 629.886719 658.523438 C 644.824219 677.015625 658.242188 696.554688 670.140625 717.136719 Z M 670.140625 717.136719 " fill-opacity="1" fill-rule="nonzero"/><path fill="#453963" d="M 527.980469 659.6875 C 528.550781 666.3125 520.96875 685.277344 509.476562 709.875 C 496.285156 738.097656 477.785156 773.582031 460.457031 806.050781 C 451.496094 807.050781 442.535156 807.777344 433.355469 808.050781 L 458.664062 708.402344 L 486.714844 597.699219 C 492.75 599.054688 499.882812 600.6875 507.660156 602.597656 C 517.429688 624.203125 526.878906 647.710938 527.980469 659.6875 Z M 527.980469 659.6875 " fill-opacity="1" fill-rule="nonzero"/><path fill="#b0bfe2" d="M 357.722656 556.695312 C 345.738281 559.769531 336.757812 560.648438 331.410156 572.0625 C 326.0625 583.480469 323.949219 600.519531 327.28125 608.691406 C 330.617188 616.859375 350.53125 642.765625 363.964844 643.863281 C 377.394531 644.960938 392.1875 612.027344 394.808594 611.585938 C 397.433594 611.148438 400.441406 644.304688 423.789062 646.277344 C 447.136719 648.253906 479.28125 615.539062 485.449219 601.484375 C 491.621094 587.433594 470.738281 562.757812 461.785156 559.289062 C 452.828125 555.820312 422.847656 559.328125 422.847656 559.328125 Z M 357.722656 556.695312 " fill-opacity="1" fill-rule="nonzero"/><path fill="#ffbbae" d="M 462.425781 566.890625 C 463.472656 586.613281 430.160156 611.03125 395.140625 608.5 C 360.1875 605.980469 355.148438 591.644531 355.148438 591.644531 C 355.148438 591.644531 353.96875 567.835938 351.929688 546.988281 C 351.0625 538.742188 350.121094 530.910156 349.078125 525.261719 L 453.40625 478.519531 C 451.441406 495.722656 456.976562 526.042969 460.285156 548.394531 C 461.375 555.59375 462.183594 562.027344 462.425781 566.890625 Z M 462.425781 566.890625 " fill-opacity="1" fill-rule="nonzero"/><path fill="#ea7565" d="M 460.285156 548.382812 C 424.730469 570.625 380.519531 560.632812 351.929688 546.996094 C 351.0625 538.75 350.121094 530.917969 349.078125 525.269531 L 453.40625 478.527344 C 451.421875 495.730469 456.976562 526.050781 460.285156 548.382812 Z M 460.285156 548.382812 " fill-opacity="1" fill-rule="nonzero"/><path fill="#ffbbae" d="M 299.53125 325.308594 C 325.132812 390.894531 468.859375 387.414062 468.859375 387.414062 C 468.859375 387.414062 465.773438 430.738281 474.789062 436.621094 C 483.800781 442.503906 484.054688 397 516.785156 394.476562 C 549.515625 391.949219 545.582031 454.597656 521.839844 462.164062 C 498.101562 469.734375 490.089844 455.4375 490.089844 455.4375 C 490.089844 455.4375 450.492188 547.933594 374.785156 547.933594 C 299.078125 547.933594 291.691406 459.640625 291.167969 442.828125 C 290.640625 426.015625 299.53125 325.308594 299.53125 325.308594 Z M 299.53125 325.308594 " fill-opacity="1" fill-rule="nonzero"/></svg>